name rise30.8019peak61.5557fall86.2505.mot
datacolumns 19
datarows 24
range 8.83664000000000 8.87497100000000
endheader
time	ground_force1_vx	ground_force1_vy	ground_force1_vz	ground_force1_px	ground_force1_py	ground_force1_pz	ground_force2_vx	ground_force2_vy	ground_force2_vz	ground_force2_px	ground_force2_py	ground_force2_pz	ground_torque1_x	ground_torque1_y	ground_torque1_z	ground_torque2_x	ground_torque2_y	ground_torque2_z	
8.83664000000000	59.33980200000000	754.37098100000003	47.02461600000000	0.24950000000000	0.00000000000000	0.09927800000000	0.00000000000000	0.00000000000000	0.00000000000000	0.00000000000000	0.00000000000000	0.00000000000000	0.00000000000000	12.33171700000000	0.00000000000000	0.00000000000000	0.00000000000000	0.00000000000000	
8.83830700000000	58.73417600000000	755.28914399999996	47.11342100000000	0.24851100000000	0.00000000000000	0.09930000000000	0.00000000000000	0.00000000000000	0.00000000000000	0.00000000000000	0.00000000000000	0.00000000000000	0.00000000000000	12.38092600000000	0.00000000000000	0.00000000000000	0.00000000000000	0.00000000000000	
8.83997400000000	58.12732200000000	756.07564200000002	47.19837200000000	0.24752100000000	0.00000000000000	0.09932300000000	0.00000000000000	0.00000000000000	0.00000000000000	0.00000000000000	0.00000000000000	0.00000000000000	0.00000000000000	12.42833700000000	0.00000000000000	0.00000000000000	0.00000000000000	0.00000000000000	
8.84163800000000	57.51904900000000	756.73110799999995	47.27915200000000	0.24652700000000	0.00000000000000	0.09934600000000	0.00000000000000	0.00000000000000	0.00000000000000	0.00000000000000	0.00000000000000	0.00000000000000	0.00000000000000	12.47383200000000	0.00000000000000	0.00000000000000	0.00000000000000	0.00000000000000	
8.84330800000000	56.90914700000000	757.25638000000004	47.35541000000000	0.24552900000000	0.00000000000000	0.09936900000000	0.00000000000000	0.00000000000000	0.00000000000000	0.00000000000000	0.00000000000000	0.00000000000000	0.00000000000000	12.51728500000000	0.00000000000000	0.00000000000000	0.00000000000000	0.00000000000000	
8.84496700000000	56.29738200000000	757.65251100000000	47.42676200000000	0.24452400000000	0.00000000000000	0.09939200000000	0.00000000000000	0.00000000000000	0.00000000000000	0.00000000000000	0.00000000000000	0.00000000000000	0.00000000000000	12.55856100000000	0.00000000000000	0.00000000000000	0.00000000000000	0.00000000000000	
8.84663900000000	55.68351200000000	757.92076099999997	47.49280100000000	0.24351200000000	0.00000000000000	0.09941600000000	0.00000000000000	0.00000000000000	0.00000000000000	0.00000000000000	0.00000000000000	0.00000000000000	0.00000000000000	12.59751500000000	0.00000000000000	0.00000000000000	0.00000000000000	0.00000000000000	
8.84830300000000	55.06728400000000	758.06261099999995	47.55309800000000	0.24249200000000	0.00000000000000	0.09944000000000	0.00000000000000	0.00000000000000	0.00000000000000	0.00000000000000	0.00000000000000	0.00000000000000	0.00000000000000	12.63400000000000	0.00000000000000	0.00000000000000	0.00000000000000	0.00000000000000	
8.84997300000000	54.44844400000000	758.07975099999999	47.60720800000000	0.24146200000000	0.00000000000000	0.09946400000000	0.00000000000000	0.00000000000000	0.00000000000000	0.00000000000000	0.00000000000000	0.00000000000000	0.00000000000000	12.66786500000000	0.00000000000000	0.00000000000000	0.00000000000000	0.00000000000000	
8.85163600000000	53.82673800000000	757.97409100000004	47.65467300000000	0.24042100000000	0.00000000000000	0.09948900000000	0.00000000000000	0.00000000000000	0.00000000000000	0.00000000000000	0.00000000000000	0.00000000000000	0.00000000000000	12.69895400000000	0.00000000000000	0.00000000000000	0.00000000000000	0.00000000000000	
8.85330500000000	53.20192200000000	757.74775000000000	47.69502500000000	0.23936800000000	0.00000000000000	0.09951400000000	0.00000000000000	0.00000000000000	0.00000000000000	0.00000000000000	0.00000000000000	0.00000000000000	0.00000000000000	12.72711600000000	0.00000000000000	0.00000000000000	0.00000000000000	0.00000000000000	
8.85496700000000	52.57375900000000	757.40305899999998	47.72779600000000	0.23830300000000	0.00000000000000	0.09953800000000	0.00000000000000	0.00000000000000	0.00000000000000	0.00000000000000	0.00000000000000	0.00000000000000	0.00000000000000	12.75219800000000	0.00000000000000	0.00000000000000	0.00000000000000	0.00000000000000	
8.85663700000000	51.94203000000000	756.94255599999997	47.75251600000000	0.23722300000000	0.00000000000000	0.09956300000000	0.00000000000000	0.00000000000000	0.00000000000000	0.00000000000000	0.00000000000000	0.00000000000000	0.00000000000000	12.77405000000000	0.00000000000000	0.00000000000000	0.00000000000000	0.00000000000000	
8.85830400000000	51.30653400000000	756.36897999999997	47.76872300000000	0.23612900000000	0.00000000000000	0.09958800000000	0.00000000000000	0.00000000000000	0.00000000000000	0.00000000000000	0.00000000000000	0.00000000000000	0.00000000000000	12.79252900000000	0.00000000000000	0.00000000000000	0.00000000000000	0.00000000000000	
8.85997000000000	50.66709400000000	755.68526899999995	47.77596200000000	0.23502000000000	0.00000000000000	0.09961300000000	0.00000000000000	0.00000000000000	0.00000000000000	0.00000000000000	0.00000000000000	0.00000000000000	0.00000000000000	12.80749700000000	0.00000000000000	0.00000000000000	0.00000000000000	0.00000000000000	
8.86163500000000	50.02355900000000	754.89455099999998	47.77379400000000	0.23389500000000	0.00000000000000	0.09963800000000	0.00000000000000	0.00000000000000	0.00000000000000	0.00000000000000	0.00000000000000	0.00000000000000	0.00000000000000	12.81882500000000	0.00000000000000	0.00000000000000	0.00000000000000	0.00000000000000	
8.86330000000000	49.37580600000000	754.00013500000000	47.76179800000000	0.23275400000000	0.00000000000000	0.09966300000000	0.00000000000000	0.00000000000000	0.00000000000000	0.00000000000000	0.00000000000000	0.00000000000000	0.00000000000000	12.82639200000000	0.00000000000000	0.00000000000000	0.00000000000000	0.00000000000000	
8.86497300000000	48.72374600000000	753.00550799999996	47.73957200000000	0.23159600000000	0.00000000000000	0.09968800000000	0.00000000000000	0.00000000000000	0.00000000000000	0.00000000000000	0.00000000000000	0.00000000000000	0.00000000000000	12.83009000000000	0.00000000000000	0.00000000000000	0.00000000000000	0.00000000000000	
8.86664100000000	48.06732300000000	751.91432199999997	47.70674300000000	0.23042100000000	0.00000000000000	0.09971300000000	0.00000000000000	0.00000000000000	0.00000000000000	0.00000000000000	0.00000000000000	0.00000000000000	0.00000000000000	12.82982100000000	0.00000000000000	0.00000000000000	0.00000000000000	0.00000000000000	
8.86830700000000	47.40651800000000	750.73038799999995	47.66296500000000	0.22922900000000	0.00000000000000	0.09973800000000	0.00000000000000	0.00000000000000	0.00000000000000	0.00000000000000	0.00000000000000	0.00000000000000	0.00000000000000	12.82550100000000	0.00000000000000	0.00000000000000	0.00000000000000	0.00000000000000	
8.86997100000000	46.74135200000000	749.45766300000003	47.60792500000000	0.22801900000000	0.00000000000000	0.09976200000000	0.00000000000000	0.00000000000000	0.00000000000000	0.00000000000000	0.00000000000000	0.00000000000000	0.00000000000000	12.81706100000000	0.00000000000000	0.00000000000000	0.00000000000000	0.00000000000000	
8.87164000000000	46.07188200000000	748.10023799999999	47.54134500000000	0.22679200000000	0.00000000000000	0.09978600000000	0.00000000000000	0.00000000000000	0.00000000000000	0.00000000000000	0.00000000000000	0.00000000000000	0.00000000000000	12.80444500000000	0.00000000000000	0.00000000000000	0.00000000000000	0.00000000000000	
8.87330500000000	45.39820800000000	746.66233299999999	47.46298500000000	0.22554800000000	0.00000000000000	0.09980900000000	0.00000000000000	0.00000000000000	0.00000000000000	0.00000000000000	0.00000000000000	0.00000000000000	0.00000000000000	12.78761500000000	0.00000000000000	0.00000000000000	0.00000000000000	0.00000000000000	
8.87497100000000	44.72047000000000	745.14827800000000	47.37264600000000	0.22428800000000	0.00000000000000	0.09983200000000	0.00000000000000	0.00000000000000	0.00000000000000	0.00000000000000	0.00000000000000	0.00000000000000	0.00000000000000	12.76654900000000	0.00000000000000	0.00000000000000	0.00000000000000	0.00000000000000	
